<?xml version="1.0" encoding="UTF-8"?>
<svg id="Layer_1" data-name="Layer 1" xmlns="http://www.w3.org/2000/svg" viewBox="0 0 347.78 405.79">
  <defs>
    <style>
      .cls-1 {
        stroke-width: 3px;
      }

      .cls-1, .cls-2 {
        fill: none;
        stroke: #231f20;
        stroke-miterlimit: 10;
      }

      .cls-2 {
        stroke-width: 2px;
      }
    </style>
  </defs>
  <polygon class="cls-1" points="22.26 209.93 8.55 218.15 8 231.31 39.36 248.86 39.25 260.92 38.78 261.2 33.38 264.63 33.77 254.34 20.06 246.66 6.9 254.34 7.45 270.79 18.42 277.37 39.14 265.26 39.25 270.24 54.05 262.58 60.9 266.29 60.9 274.24 54.05 270.39 42.98 276.54 43.09 291.62 54.05 297.54 66.12 291.07 66.12 269.14 68.31 270.24 71.05 268.59 71.05 253.4 77.63 249.4 83.11 252.15 76.54 255.98 76.74 269.6 89.15 277.37 101.76 270.24 101.65 255.49 71.95 239 72.15 224.73 76.37 222.27 76.27 235.85 88.91 242.31 100.66 235.15 100.66 218.15 87.61 210.32 57.35 226.93 45.28 219.96 45.21 213.27 57.05 219.34 67.91 212.61 67.91 196.01 54.6 188.55 40.35 197.87 39.9 231.56 29.38 238.99 22.73 235.18 32.12 228.57 32.67 214.86 22.26 209.93"/>
  <path class="cls-1" d="M50.77,182.67l-15.94,10.93c-.86.59-1.37,1.56-1.39,2.6l-.12,12.14c-.01,1.33-1.4,2.2-2.6,1.64l-8.98-4.21c-.85-.4-1.84-.34-2.64.16l-14.18,8.88c-.77.48-1.25,1.31-1.27,2.22l-.47,16.37c-.02.84.41,1.63,1.13,2.07l10.42,6.25c.96.58.97,1.97.02,2.56l-12.37,7.64c-.55.34-.89.94-.89,1.04v20.3c0,1.26.36,1.92.96,2.31l13.04,8.43c1.15.74,2.62.79,3.81.12l15.25-8.51c.67-.37,1.49.11,1.49.87l.02,16.05c0,1,.49,1.93,1.31,2.5l14.52,8.37c1.06.61,2.35.67,3.46.15l14.4-8.03c.51-.28.83-.82.83-1.41l.06-16.42c0-.99,1.08-1.6,1.93-1.09l14.02,8.3c.78.46,1.75.47,2.54.03l15.95-8.97c.69-.39,1.11-1.13,1.09-1.93l-.48-19.18c-.02-.91-.51-1.74-1.3-2.19l-9.02-5.27c-.79-.46-.8-1.59-.03-2.07l9.02-5.66c.66-.41,1.05-1.14,1.04-1.91l-.28-21.64c0-.68-.36-1.31-.93-1.69l-15.98-10.46c-.57-.37-1.3-.42-1.91-.11l-12.09,6.05c-.67.33-1.46-.15-1.46-.9v-14.85c0-1-.54-1.92-1.42-2.4l-16.73-9.28c-1.22-.68-2.71-.6-3.86.18Z"/>
  <g>
    <polygon class="cls-2" points="13.7 257.47 19.82 254.08 26.39 257.47 20.4 261.35 13.7 257.47"/>
    <polygon class="cls-2" points="20.4 262.76 26.39 258.88 26.04 264.17 20.4 267.34 20.4 262.76"/>
    <polygon class="cls-2" points="13.09 258.58 19.34 262.41 18.99 267.69 13.35 264.52 13.09 258.58"/>
  </g>
  <g>
    <polygon class="cls-2" points="48.02 281.19 55.68 276.98 61.28 280.29 53.77 284.25 48.02 281.19"/>
    <polygon class="cls-2" points="54.14 285.44 61.36 281.44 61.14 286.69 54.15 290.96 54.14 285.44"/>
    <polygon class="cls-2" points="47.44 282.13 53 285.4 52.93 291.24 47.29 287.66 47.44 282.13"/>
  </g>
  <g>
    <polygon class="cls-2" points="83.07 260.14 90.71 255.93 96.3 259.24 88.8 263.19 83.07 260.14"/>
    <polygon class="cls-2" points="89.18 264.38 96.38 260.38 96.16 265.63 89.18 269.89 89.18 264.38"/>
    <polygon class="cls-2" points="82.49 261.08 88.04 264.34 87.97 270.17 82.34 266.6 82.49 261.08"/>
  </g>
  <g>
    <polygon class="cls-2" points="84.57 221.47 88.33 219.21 93.97 222.6 90.21 224.48 84.57 221.47"/>
    <polygon class="cls-2" points="90.59 226.36 94.35 224.48 94.31 231.34 90.46 233.77 90.59 226.36"/>
    <polygon class="cls-2" points="83.82 223.35 89.46 225.98 89.46 234.25 83.54 231.53 83.82 223.35"/>
  </g>
  <g>
    <polygon class="cls-2" points="49.45 202.39 55.26 198.37 60.4 201.27 55.04 205.3 49.45 202.39"/>
    <polygon class="cls-2" points="55.49 205.97 60.63 202.17 60.4 206.19 55.49 210.21 55.49 205.97"/>
    <polygon class="cls-2" points="49.23 203.29 54.14 205.97 54.08 210.41 49.23 207.76 49.23 203.29"/>
  </g>
  <g>
    <polygon class="cls-2" points="16.02 221.64 21.71 218.17 26.16 220.4 20.72 224.11 16.02 221.64"/>
    <polygon class="cls-2" points="21.21 224.85 26.16 221.64 26.16 227.57 21.21 231.28 21.21 224.85"/>
    <polygon class="cls-2" points="15.28 222.62 20.22 225.1 20.22 232.27 15.03 229.3 15.28 222.62"/>
  </g>
  <path class="cls-1" d="M61.83,234.91c-.18-.15-.41-.22-.64-.18l-10.13,1.6c-.39.06-.67.4-.67.79v8.26h-1.6c-1.76,0-3.2,1.32-3.2,2.93s1.44,2.93,3.2,2.93,3.2-1.32,3.2-2.93v-7.31l8.53-1.35v4.4h-1.6c-1.76,0-3.2,1.32-3.2,2.93s1.44,2.93,3.2,2.93,3.2-1.32,3.2-2.93v-11.46c0-.23-.1-.46-.28-.61Z"/>
</svg>